<?xml version="1.0" encoding="UTF-8" standalone="no"?>
<svg
   xmlns:osb="http://www.openswatchbook.org/uri/2009/osb"
   xmlns:dc="http://purl.org/dc/elements/1.1/"
   xmlns:cc="http://creativecommons.org/ns#"
   xmlns:rdf="http://www.w3.org/1999/02/22-rdf-syntax-ns#"
   xmlns:svg="http://www.w3.org/2000/svg"
   xmlns="http://www.w3.org/2000/svg"
   xmlns:sodipodi="http://sodipodi.sourceforge.net/DTD/sodipodi-0.dtd"
   xmlns:inkscape="http://www.inkscape.org/namespaces/inkscape"
   width="474.46991"
   height="167.56706"
   viewBox="0 0 474.46991 167.56706"
   version="1.1"
   id="SVGRoot"
   inkscape:version="1.0.2 (e86c870879, 2021-01-15, custom)"
   sodipodi:docname="logo_2.svg"
   inkscape:export-filename="C:\Users\Christa\Documents\100DaysOfCode\100DaysOfCode_Projects\CommunicationBoard1\assets\girl2.png"
   inkscape:export-xdpi="102.98851"
   inkscape:export-ydpi="102.98851">
  <defs
     id="defs2">
    <rect
       x="-0.91608661"
       y="12.292598"
       width="230.7209"
       height="47.340611"
       id="rect2017" />
    <rect
       x="117.14286"
       y="37.142857"
       width="368.57144"
       height="152.85715"
       id="rect1957" />
    <linearGradient
       id="linearGradient1518"
       osb:paint="gradient">
      <stop
         style="stop-color:#ff2a2a;stop-opacity:1;"
         offset="0"
         id="stop1514" />
      <stop
         style="stop-color:#ff2a2a;stop-opacity:0;"
         offset="1"
         id="stop1516" />
    </linearGradient>
    <rect
       x="117.14286"
       y="37.142857"
       width="322.34109"
       height="95.419472"
       id="rect1957-9" />
    <rect
       x="117.14286"
       y="37.142857"
       width="368.57144"
       height="152.85715"
       id="rect1976" />
  </defs>
  <sodipodi:namedview
     id="base"
     pagecolor="#ffffff"
     bordercolor="#666666"
     borderopacity="1.0"
     inkscape:pageopacity="0.0"
     inkscape:pageshadow="2"
     inkscape:zoom="0.49497475"
     inkscape:cx="247.00662"
     inkscape:cy="156.10221"
     inkscape:document-units="px"
     inkscape:current-layer="layer1"
     inkscape:document-rotation="0"
     showgrid="false"
     units="px"
     inkscape:window-width="1366"
     inkscape:window-height="705"
     inkscape:window-x="-8"
     inkscape:window-y="-8"
     inkscape:window-maximized="1" />
  <metadata
     id="metadata5">
    <rdf:RDF>
      <cc:Work
         rdf:about="">
        <dc:format>image/svg+xml</dc:format>
        <dc:type
           rdf:resource="http://purl.org/dc/dcmitype/StillImage" />
        <dc:title></dc:title>
      </cc:Work>
    </rdf:RDF>
  </metadata>
  <g
     inkscape:label="Layer 1"
     inkscape:groupmode="layer"
     id="layer1"
     style="display:inline"
     transform="translate(-17.51629,136.24349)">
    <g
       id="g2082">
      <g
         aria-label="Markets
"
         transform="matrix(1.5132661,0,0,1.6297118,-161.44153,-207.17575)"
         id="text1955-1"
         style="font-style:normal;font-variant:normal;font-weight:normal;font-stretch:normal;font-size:51.7753px;line-height:0.95;font-family:Castellar;-inkscape-font-specification:Castellar;text-align:start;text-anchor:start;white-space:pre;shape-inside:url(#rect1957-9);display:inline;stroke:none;stroke-opacity:1">
        <path
           d="m 185.13017,107.90045 q 0.54173,0.4063 0.54173,0.76746 0,0.49659 -1.08346,0.49659 -0.90289,0 -1.53492,-0.0452 -3.11497,-0.22572 -4.063,-0.22572 -1.76063,0 -2.8441,0.0903 -1.03833,0.0903 -2.39266,0.18058 -0.99318,0 -0.99318,-0.49659 0,-0.31601 0.36116,-0.67717 1.12861,-0.99318 1.67034,-1.48977 1.03833,-0.94803 0.94804,-1.76063 l -6.86196,-51.013269 -14.53653,16.342303 q 2.48295,2.61838 4.10815,5.913927 1.85092,3.746992 1.85092,6.997395 0,4.379015 -2.34751,7.629418 -2.52809,3.476125 -6.5008,3.476125 -3.88243,0 -6.36538,-3.385836 -2.30237,-3.160114 -2.30237,-7.44884 0,-3.069825 1.58006,-6.275083 1.2189,-2.482947 3.02468,-4.379015 -5.23676,-5.959072 -8.35173,-10.202653 -3.06982,-4.288726 -3.83728,-6.500806 l -6.32023,48.846334 q -0.0903,0.8126 1.12862,1.76063 0.99317,0.76746 2.0315,1.48977 0.36115,0.36116 0.36115,0.67717 0,0.49659 -0.8126,0.49659 -0.4063,0.0451 -2.52809,-0.0903 -2.07664,-0.18058 -2.97953,-0.18058 -1.89607,0 -3.06983,0.0903 -1.12861,0.0903 -2.61838,0.18058 -0.99318,0 -0.99318,-0.49659 0,-0.36116 0.54174,-0.85775 0.85774,-0.67717 1.76063,-1.35433 1.12861,-0.94804 1.2189,-1.71549 l 7.67456,-54.353961 q 0.0903,-0.8126 -1.17375,-1.850924 -0.99318,-0.722311 -1.98636,-1.489768 -0.27087,-0.270866 -0.27087,-0.541733 0,-0.541734 0.8126,-0.541734 0.31602,0 2.21208,0.135433 1.89607,0.135434 3.56642,0.135434 1.85092,0 2.97953,-0.04514 1.12862,-0.09029 2.61838,-0.225722 1.03833,0 1.03833,0.496589 0,0.270867 -0.31601,0.586878 -1.12862,0.90289 -1.76064,1.399479 -1.2189,0.993179 -1.2189,1.80578 0,0.135433 0.0903,0.4063 0.67717,1.896068 4.4693,6.275083 2.93439,3.340692 6.86196,7.358551 3.47613,3.52127 3.56642,3.52127 L 166.8918,51.289269 q 0.72231,-0.722312 0.72231,-1.399479 0,-0.496589 -0.45144,-1.038323 -0.22573,-0.270867 -0.85775,-0.767456 -0.63202,-0.49659 -1.30919,-1.038324 -0.36116,-0.361155 -0.36116,-0.632022 0,-0.451445 0.99318,-0.451445 0.90289,0 1.53492,0.04514 3.11497,0.225723 4.063,0.225723 1.35433,0 3.16011,-0.135434 1.80578,-0.135433 2.16694,-0.135433 1.26404,0 1.26404,0.586878 0,0.316012 -0.36115,0.586878 -0.94804,0.632023 -1.44463,0.993179 -1.76063,1.264046 -1.6252,2.257224 l 7.31341,54.353961 q 0.0903,0.76745 1.39948,1.76063 0.99318,0.72231 2.0315,1.39948 z M 155.51539,83.703008 q 0,-2.392658 -1.94121,-5.056182 -1.39948,-1.896068 -3.56642,-3.611559 -1.80578,1.625202 -2.79896,3.340692 -1.35433,2.302369 -1.35433,4.695026 0,2.979536 1.17376,5.056182 1.39948,2.437802 3.88242,2.437802 2.21208,0 3.47613,-2.212079 1.12861,-1.941213 1.12861,-4.649882 z"
           style="font-size:92.4559px"
           id="path2033" />
        <path
           d="m 233.07361,107.99074 q 0.31601,0.49659 0.31601,0.72231 0,0.45145 -0.67717,0.45145 -0.18057,0 -1.48976,-0.13544 -1.30919,-0.13543 -2.48295,-0.13543 -0.8126,0 -1.80578,0.13543 -0.99318,0.13544 -1.17376,0.13544 -1.03832,0 -1.03832,-0.49659 0,-0.18058 0.22572,-0.49659 0.4063,-0.58688 0.63203,-1.2189 0.27086,-0.67717 0.27086,-1.48977 l -0.27086,-4.33387 q -1.76064,3.70185 -5.82364,6.45566 -4.51445,3.02468 -9.4352,3.02468 -6.95225,0 -11.73756,-4.10815 -5.05619,-4.33387 -5.05619,-11.240974 0,-6.952251 5.50763,-11.647277 5.2819,-4.514448 12.64046,-4.514448 3.56641,0 6.81681,1.399479 3.29555,1.399479 5.01104,3.385836 0,-1.986357 -2.30237,-5.913927 -2.70867,-4.649882 -6.36537,-7.629418 -4.60474,-3.792137 -9.48034,-3.792137 -3.02468,0 -5.19162,1.264046 -2.48294,1.444623 -2.48294,3.972714 0,1.444624 0.72231,2.392658 0.76745,0.948034 2.07664,0.948034 0.90289,0 1.58006,-0.586878 0.67717,-0.586878 0.67717,-1.399479 0,-0.586878 -0.18058,-1.128612 -0.13543,-0.586879 -0.27087,-1.038323 -0.13543,-0.316012 0.0452,-0.406301 0.0903,-0.04514 0.58688,-0.04514 1.26404,0.135433 2.30236,1.173756 1.03833,1.038324 1.03833,2.347514 0,2.12179 -1.71549,3.566414 -1.67035,1.399479 -3.88243,1.399479 -2.61838,0 -4.33387,-1.760635 -1.71549,-1.760635 -1.71549,-4.740171 0,-3.882425 4.10815,-6.049361 3.61156,-1.896068 8.71288,-1.896068 5.01104,0 9.88665,3.205258 4.8756,3.160114 7.90028,8.622597 2.12179,3.837281 3.38584,9.525486 0.8126,3.611558 1.53491,9.931786 0.72231,6.275086 1.2189,8.622596 0.22572,1.17376 0.85775,2.25722 0.67716,0.99318 0.85774,1.26405 z m -7.67456,-14.446235 q 0,-5.101326 -3.79214,-8.126007 -3.74699,-3.069825 -9.8415,-3.069825 -4.96589,0 -8.66774,3.250403 -3.70184,3.250403 -3.70184,8.035718 0,5.101327 3.74699,8.622596 3.79213,3.47613 8.98375,3.47613 6.00422,0 9.61578,-3.38584 3.6567,-3.430981 3.6567,-8.803175 z"
           style="font-size:92.4559px"
           id="path2035" />
        <path
           d="m 273.61335,71.152842 q 0,2.61838 -1.39948,4.243581 -1.39948,1.625201 -3.74699,1.625201 -1.67035,0 -2.88925,-0.451444 -1.17375,-0.451445 -1.53491,-1.264046 -0.13543,-0.180578 -0.0451,-0.4063 0.0903,-0.225723 0.4063,-0.225723 0.8126,0 1.48977,-0.225722 0.72231,-0.225723 1.26404,-0.812601 0.76746,-0.857745 0.76746,-2.121791 0,-1.489767 -1.17376,-2.392657 -1.35433,-1.038323 -3.88243,-1.038323 -3.20525,0 -6.32022,2.844102 -2.75382,2.528091 -4.24358,6.094505 v 27.718716 q 0,0.8126 0.99317,1.67034 0.85775,0.72231 1.71549,1.39948 0.45145,0.45145 0.45145,0.8126 0,0.54174 -0.99318,0.54174 -0.8126,0 -1.35433,-0.0452 -2.79896,-0.22572 -3.70185,-0.22572 -1.71549,0 -2.75381,0.0903 -0.99318,0.0903 -2.30237,0.18058 -0.99318,0 -0.99318,-0.49659 0,-0.4063 0.54173,-0.94804 0.8126,-0.67716 1.2189,-0.99318 1.39948,-1.12861 1.39948,-1.98635 V 78.014803 q 0,-3.114969 -1.67034,-5.146471 -1.12862,-1.354335 -4.83046,-2.979536 -0.18058,-0.04514 -0.18058,-0.270867 0,-0.270867 0.18058,-0.451445 l 2.07664,-1.986357 q 0.58688,-0.586878 1.03833,-1.128612 0.13543,-0.135433 0.58687,-0.767456 0.27087,-0.316012 0.58688,-0.316012 0.18058,0 0.4063,0.135434 2.52809,1.760635 3.74699,3.02468 2.70867,2.753814 3.11497,5.643061 1.67035,-3.746992 4.9659,-6.275084 3.83728,-2.934391 8.48716,-2.934391 4.01786,0 6.27508,1.941213 2.30237,1.896068 2.30237,4.649882 z"
           style="font-size:92.4559px"
           id="path2037" />
        <path
           d="m 318.66755,106.81698 q 0,1.44463 -1.17376,2.48295 -1.17376,1.03832 -2.70867,1.03832 -3.2504,0 -5.6882,-3.02468 -1.44463,-1.80578 -3.83729,-6.77167 -2.39265,-4.965893 -4.10814,-6.997395 -3.06983,-3.611558 -5.41734,-5.23676 -3.16012,-2.166935 -6.77167,-2.166935 v 18.59953 q 0,0.72231 0.94803,1.58005 0.8126,0.72232 1.67035,1.39948 0.54173,0.54174 0.54173,0.90289 0,0.54174 -0.99318,0.54174 -0.8126,0 -1.35433,-0.0452 -2.79896,-0.22572 -3.70185,-0.22572 -1.6252,0 -2.66353,0.0903 -0.99317,0.0903 -2.30236,0.18058 -1.08347,0 -1.08347,-0.54174 0,-0.27086 0.45144,-0.8126 1.12861,-0.90289 1.67035,-1.39948 1.03832,-0.90289 1.03832,-1.67034 v -48.3046 q 0,-1.30919 -0.0903,-2.076646 -0.0903,-0.767456 -1.08346,-0.632023 -0.49659,0.09029 -1.67035,0.90289 -1.17376,0.767456 -1.58006,0.902889 -0.67717,0.225723 -0.67717,-0.496589 0,-0.225722 0.27087,-0.632023 0.27087,-0.4063 2.48295,-2.528091 1.76063,-1.71549 2.79896,-2.753813 1.53491,-1.534913 3.34069,-3.656703 1.26404,-1.489768 1.6252,-1.760635 0.0903,-0.09029 0.27087,-0.135434 0.13543,-0.04514 0.22572,-0.04514 0.4063,0 0.4063,0.722311 -0.22572,1.444624 -0.4063,3.611559 -0.13543,2.121791 -0.13543,4.514448 v 30.60796 q 2.70866,-0.993178 5.82363,-2.573235 4.28873,-2.166936 7.17798,-4.379015 3.20526,-2.528091 4.37901,-3.92757 1.85093,-2.257224 1.85093,-4.920749 0,-1.264045 -0.76746,-2.166935 -0.76746,-0.90289 -2.0315,-0.90289 -0.90289,0 -1.53491,0.541734 -0.63203,0.496589 -0.72232,1.173757 0,1.218901 -0.4063,1.218901 -0.18058,0 -0.49659,-0.225723 -0.72231,-0.4063 -1.26404,-1.264045 -0.54174,-0.90289 -0.54174,-1.986358 0,-2.257224 1.67035,-3.792136 1.67035,-1.534913 4.01786,-1.534913 2.66352,0 4.42416,2.076647 1.80578,2.076646 1.80578,4.875604 0,3.611558 -2.12179,6.771672 -1.76064,2.61838 -5.10133,5.056182 -2.0315,1.489768 -5.46248,3.476126 -4.10815,2.392657 -6.81682,3.385836 3.70185,0.722312 6.5911,1.941213 4.69502,1.941213 7.13282,4.920748 2.07665,2.528091 3.11497,5.462483 0.85775,2.392658 1.2189,5.77849 0.36116,3.38584 0.49659,3.83728 0.54174,1.94122 1.85093,1.7155 0.31601,-0.0451 0.36115,-1.03833 0.0452,-1.03832 0.0903,-1.12861 0.4063,-1.53491 2.25723,-1.53491 1.30919,0 1.98635,0.85774 0.72232,0.85775 0.72232,2.12179 z"
           style="font-size:92.4559px"
           id="path2039" />
        <path
           d="m 363.63145,99.593866 q -1.17376,3.837284 -5.64306,7.177974 -5.23676,3.92757 -11.42156,3.92757 -3.97271,0 -7.04254,-0.85775 -3.52127,-0.99317 -6.68138,-3.38583 -1.26404,1.58005 -2.30237,3.43098 -1.30919,2.30237 -1.30919,3.34069 0,1.26405 0.67717,1.76064 0.45144,0.31601 1.48977,0.31601 0.31601,0 0.63202,-0.0903 0.27087,-0.0903 0.54173,-0.18058 0.18058,-0.0903 0.31602,0 0.31601,0.18058 0.13543,0.72231 -0.27087,1.08347 -1.08347,1.98636 -1.08347,1.17376 -2.52809,1.17376 -1.53491,0 -2.52809,-1.12862 -0.99318,-1.12861 -0.99318,-2.93439 0,-1.44462 0.99318,-3.52127 0.27087,-0.58688 3.88242,-6.41051 -3.34069,-3.43099 -5.14647,-7.448845 -1.98635,-4.469303 -1.98635,-9.615775 0,-9.480341 6.13965,-16.387447 6.18479,-6.907106 15.34912,-6.907106 3.6567,0 7.49398,1.760635 2.1218,1.038323 4.24359,2.031502 0.4063,0.180578 1.17375,0.270867 0.76746,0.09029 1.53492,0.09029 l 1.35433,-0.09029 q 0.49659,0 0.49659,0.4063 0,0.316011 -0.31601,0.496589 -0.72231,0.451445 -1.58006,1.218901 -1.17376,0.993179 -2.0315,2.031502 -4.37902,4.875604 -10.15751,12.775889 -5.77849,7.900284 -10.87982,15.845718 2.66352,1.89606 5.41734,2.93439 3.2504,1.2189 6.77167,1.2189 4.8756,0 8.03572,-1.85093 2.30237,-1.35433 5.14647,-4.830456 0.27087,-0.4063 0.63202,-0.857745 0.36116,-0.496589 0.8126,-0.4063 0.58688,0.135433 0.58688,0.857745 0,0.541734 -0.22572,1.128612 z M 351.26186,72.958621 q 0,-2.663525 -2.88925,-4.153293 -2.4378,-1.264045 -5.86878,-1.264045 -6.41052,0 -10.56381,5.462482 -3.88242,5.146472 -3.88242,12.234155 0,4.198437 2.0315,8.396874 1.71549,3.566415 4.28872,6.049361 3.06983,-4.559593 4.78532,-7.087684 2.75381,-4.063003 4.69502,-6.816817 2.48295,-3.521269 4.9659,-7.042539 2.4378,-3.792137 2.4378,-5.778494 z"
           style="font-size:92.4559px"
           id="path2041" />
        <path
           d="m 386.47457,68.173306 q 0,0.722311 -0.63203,0.722311 -0.22572,0 -2.21208,-0.09029 -1.98635,-0.09029 -3.74699,-0.09029 v 29.885649 q 0,3.205262 1.80578,5.462482 0.49659,0.63202 2.61838,2.39266 0.36116,0.27086 0.36116,0.63202 0,0.22572 -0.36116,0.49659 -0.36115,0.22572 -0.8126,0.49659 -0.58688,0.45144 -0.90289,0.72231 -1.26404,1.12861 -1.6252,1.6252 -0.36116,0.36116 -0.72231,0.36116 -0.31601,0 -0.63202,-0.18058 -1.94122,-1.08347 -3.43099,-3.70185 -2.07664,-3.6567 -2.07664,-8.758027 V 68.715039 q -1.44463,0 -2.75382,0.09029 -1.30919,0.04514 -2.66352,0.09029 -0.63202,0 -0.63202,-0.722311 v -1.444624 q 0,-0.722312 0.8126,-0.722312 0.22572,0 1.98636,0.09029 1.76063,0.09029 3.2504,0.09029 v -3.43098 q 0,-2.61838 -1.12861,-2.934392 -0.76746,-0.09029 -1.03833,-0.135433 -0.63202,0 -0.63202,-0.632023 0,-0.270867 0.27087,-0.541734 0.99318,-0.857745 2.0315,-1.805779 1.03832,-0.993179 2.30237,-2.257224 1.44462,-1.489768 2.21208,-2.482947 0.8126,-0.993179 1.58005,-1.941213 0.13544,-0.225722 0.36116,-0.225722 0.36116,0 0.36116,0.677167 -0.13544,1.173757 -0.27087,2.347513 -0.27087,2.844103 -0.27087,5.868783 v 7.493984 q 1.48977,0 2.93439,-0.04514 1.44463,-0.04514 3.02468,-0.135434 0.63203,0 0.63203,0.632023 z"
           style="font-size:92.4559px"
           id="path2043" />
        <path
           d="m 431.79963,94.627973 q 0,7.132827 -6.1848,11.692417 -5.77849,4.28873 -13.76906,4.28873 -6.77168,0 -11.24098,-2.21208 -5.46248,-2.70867 -5.46248,-7.99057 0,-4.017862 2.93439,-6.771676 2.97954,-2.798958 7.08768,-2.798958 4.24358,0 6.90711,1.534913 3.02468,1.760635 3.02468,4.965893 0,2.031502 -1.48977,3.566418 -1.44462,1.48976 -3.47612,1.48976 -1.94122,0 -2.79896,-0.72231 -0.22572,-0.22572 -0.22572,-0.36115 0,-0.31601 0.58687,-0.45145 0.76746,-0.27087 1.26405,-0.948032 0.54173,-0.677168 0.54173,-2.121791 0,-1.30919 -1.39948,-2.121791 -1.39947,-0.857745 -3.02468,-0.857745 -3.20525,0 -5.41733,1.534912 -2.16694,1.534913 -2.16694,4.243577 0,3.79214 4.83046,5.86879 4.01786,1.71549 9.52549,1.71549 5.73335,0 10.02207,-2.57324 5.05618,-3.02468 5.05618,-8.171149 0,-5.146471 -3.70184,-7.629418 -2.30237,-1.534912 -8.75803,-3.114969 -3.70185,-0.812601 -7.35855,-1.670346 -4.1533,-1.128612 -6.09451,-2.934391 -2.52809,-2.347514 -2.52809,-6.591095 0,-4.83046 5.10133,-7.990574 4.69502,-2.934391 10.78953,-2.934391 5.50762,0 8.89346,1.399479 4.4693,1.850924 4.4693,5.733349 0,2.482947 -2.39265,4.108148 -2.21208,1.489768 -5.10133,1.489768 -2.75381,0 -4.60474,-1.038323 -2.25722,-1.264045 -2.25722,-3.611558 0,-1.218902 0.8126,-2.121791 0.85775,-0.948034 1.89607,-1.264046 0.45144,-0.09029 0.49659,-0.09029 0.31601,0 0.31601,0.451445 l -0.0903,0.90289 q 0,0.993178 0.63202,1.625201 0.8126,0.812601 2.61838,0.812601 1.17376,0 2.0315,-0.812601 0.85775,-0.8126 0.85775,-1.896068 0,-2.031502 -2.93439,-2.889247 -2.16694,-0.632023 -5.64306,-0.632023 -4.33387,0 -7.81,1.941213 -3.83728,2.166935 -3.83728,5.372194 0,2.889246 2.52809,4.514448 1.58006,1.038323 10.11237,2.979536 5.2819,1.218901 8.126,2.347513 3.97272,1.580057 5.95908,3.882426 2.34751,2.708669 2.34751,6.861961 z"
           style="font-size:92.4559px"
           id="path2045" />
      </g>
      <g
         aria-label="MAGAZINE"
         transform="matrix(1.4812866,0,0,1.6485644,16.924457,-48.223752)"
         id="text2015"
         style="font-weight:bold;font-size:40px;line-height:1.25;font-family:sans-serif;-inkscape-font-specification:'sans-serif Bold';white-space:pre;shape-inside:url(#rect2017)">
        <path
           d="M 0.39953993,46.314705 2.9595399,45.283594 Q 3.2617622,45.159149 3.4750955,44.945816 3.6884288,44.732483 3.6884288,44.341372 V 25.745816 q 0,-0.391111 -0.2133333,-0.604444 -0.2133333,-0.231112 -0.5155556,-0.32 L 0.39953993,23.914705 V 22.545816 H 10.95954 l 5.031111,14.275556 0.995556,3.288888 h 0.195555 l 6.08,-17.564444 h 10.435556 v 1.368889 l -2.542223,0.906667 q -0.32,0.106666 -0.551111,0.337777 -0.213333,0.213334 -0.213333,0.586667 v 18.702222 q 0,0.408889 0.213333,0.64 0.231111,0.213334 0.551111,0.32 l 2.542223,0.906667 v 1.368889 h -12.16 v -1.368889 l 2.542222,-0.906667 q 0.337778,-0.124444 0.551111,-0.337778 0.213333,-0.231111 0.213333,-0.622222 V 26.581372 h -0.213333 l -0.96,2.951111 -5.013333,14.168889 -1.742223,3.982222 H 14.15954 L 7.7595399,29.532483 6.8173177,26.563594 H 6.6217622 v 17.777778 q 0,0.408888 0.1955555,0.622222 0.2133333,0.195555 0.5333333,0.32 l 2.5422223,1.031111 v 1.368889 H 0.39953993 Z"
           style="font-style:normal;font-variant:normal;font-weight:bold;font-stretch:normal;font-family:'Sitka Subheading';-inkscape-font-specification:'Sitka Subheading Bold'"
           id="path2048" />
        <path
           d="m 34.31953,46.314705 1.777778,-0.764445 q 0.675555,-0.302222 0.96,-1.013333 l 7.164444,-18.186667 2.151111,-4.195555 h 3.466667 l 8.711111,22.435555 q 0.142222,0.32 0.373333,0.604445 0.248889,0.266667 0.551111,0.391111 l 1.813334,0.728889 v 1.368889 H 50.017308 v -1.368889 l 3.04,-0.96 -2.4,-5.973333 h -8.568889 l -2.275556,5.884444 3.022222,1.048889 v 1.368889 H 34.31953 Z m 15.342222,-9.493333 -2.382222,-6.115556 -0.782222,-2.4 h -0.195556 l -3.2,8.515556 z"
           style="font-style:normal;font-variant:normal;font-weight:bold;font-stretch:normal;font-family:'Sitka Subheading';-inkscape-font-specification:'Sitka Subheading Bold'"
           id="path2050" />
        <path
           d="m 74.461664,48.252483 q -2.613333,0 -4.942222,-0.853334 -2.328889,-0.871111 -4.071111,-2.524444 -1.742222,-1.671111 -2.755556,-4.106667 -1.013333,-2.435555 -1.013333,-5.582222 0,-2.986667 0.995556,-5.422222 0.995555,-2.435556 2.755555,-4.16 1.76,-1.724445 4.177778,-2.666667 2.435555,-0.942222 5.315555,-0.942222 1.76,0 3.164445,0.124444 1.422222,0.124445 2.56,0.337778 1.155555,0.195556 2.08,0.426667 0.942222,0.231111 1.742222,0.444444 V 30.03026 H 82.49722 l -1.066667,-3.342222 q -0.08889,-0.266666 -0.32,-0.426666 -0.231111,-0.177778 -0.48,-0.284445 -0.586667,-0.302222 -1.333333,-0.533333 -0.746667,-0.231111 -1.546667,-0.391111 -0.782222,-0.16 -1.564444,-0.248889 -0.782223,-0.08889 -1.457778,-0.08889 -1.44,0 -2.72,0.622222 -1.28,0.604445 -2.24,1.831111 -0.96,1.226667 -1.528889,3.075556 -0.568889,1.848889 -0.568889,4.32 0,2.4 0.462222,4.426666 0.48,2.026667 1.386667,3.484445 0.924444,1.457778 2.275556,2.275555 1.351111,0.817778 3.111111,0.817778 0.728889,0 1.386666,-0.124444 0.657778,-0.124445 1.191111,-0.284445 0.533334,-0.177777 0.942223,-0.355555 0.426666,-0.195556 0.675555,-0.337778 V 39.15026 q 0,-0.373333 -0.213333,-0.586666 -0.195556,-0.213334 -0.515556,-0.32 L 75.208331,37.301372 V 35.95026 h 12.426667 v 1.351112 l -2.257778,0.942222 q -0.302222,0.124444 -0.515556,0.337778 -0.213333,0.195555 -0.213333,0.568888 v 2.773334 q 0,1.6 0,2.72 0.01778,1.102222 0.07111,1.777778 -0.995556,0.373333 -2.204444,0.711111 -1.208889,0.32 -2.542223,0.568889 -1.333333,0.266666 -2.737777,0.408888 -1.386667,0.142223 -2.773334,0.142223 z"
           style="font-style:normal;font-variant:normal;font-weight:bold;font-stretch:normal;font-family:'Sitka Subheading';-inkscape-font-specification:'Sitka Subheading Bold'"
           id="path2052" />
        <path
           d="m 87.528301,46.314705 1.777777,-0.764445 q 0.675556,-0.302222 0.96,-1.013333 l 7.164445,-18.186667 2.151111,-4.195555 h 3.466666 l 8.71111,22.435555 q 0.14222,0.32 0.37334,0.604445 0.24888,0.266667 0.55111,0.391111 l 1.81333,0.728889 v 1.368889 h -11.27111 v -1.368889 l 3.04,-0.96 -2.4,-5.973333 h -8.568891 l -2.275555,5.884444 3.022222,1.048889 v 1.368889 h -8.515555 z m 15.342219,-9.493333 -2.38222,-6.115556 -0.782222,-2.4 h -0.195555 l -3.2,8.515556 z"
           style="font-style:normal;font-variant:normal;font-weight:bold;font-stretch:normal;font-family:'Sitka Subheading';-inkscape-font-specification:'Sitka Subheading Bold'"
           id="path2054" />
        <path
           d="m 114.21272,45.568038 13.49333,-18.666666 1.24445,-1.528889 v -0.195556 h -9.49333 q -0.30223,0 -0.49778,0.177778 -0.17778,0.177778 -0.24889,0.462222 l -1.17333,3.857778 h -1.95556 v -7.128889 h 20.33778 v 2.044444 l -13.56445,18.702223 -1.22666,1.564444 v 0.195556 h 11.04 q 0.28444,0 0.46222,-0.16 0.19555,-0.16 0.28444,-0.497778 l 1.17334,-4.284445 h 1.95555 v 7.573334 h -21.83111 z"
           style="font-style:normal;font-variant:normal;font-weight:bold;font-stretch:normal;font-family:'Sitka Subheading';-inkscape-font-specification:'Sitka Subheading Bold'"
           id="path2056" />
        <path
           d="m 138.35494,46.314705 2.64889,-0.906667 q 0.35555,-0.124444 0.53333,-0.337778 0.19556,-0.231111 0.19556,-0.622222 V 25.745816 q 0,-0.391111 -0.21334,-0.604444 -0.21333,-0.231112 -0.51555,-0.32 l -2.64889,-0.906667 v -1.368889 h 12.37333 v 1.368889 l -2.64889,0.906667 q -0.30222,0.08889 -0.53333,0.32 -0.21333,0.231111 -0.21333,0.604444 v 18.702222 q 0,0.408889 0.21333,0.64 0.21333,0.213334 0.53333,0.32 l 2.64889,0.906667 v 1.368889 h -12.37333 z"
           style="font-style:normal;font-variant:normal;font-weight:bold;font-stretch:normal;font-family:'Sitka Subheading';-inkscape-font-specification:'Sitka Subheading Bold'"
           id="path2058" />
        <path
           d="m 161.43047,30.936927 -1.56444,-2.488889 h -0.17778 v 15.893334 q 0,0.391111 0.19556,0.604444 0.21333,0.213333 0.53333,0.337778 l 2.54222,1.031111 v 1.368889 h -9.6 v -1.368889 l 2.56,-1.031111 q 0.32,-0.124445 0.51556,-0.337778 0.21333,-0.213333 0.21333,-0.604444 v -18.56 q 0,-0.391112 -0.21333,-0.604445 -0.21333,-0.231111 -0.51556,-0.32 l -2.70222,-0.942222 v -1.368889 h 8.71111 l 10.70222,15.377778 1.47556,2.328889 h 0.19556 v -14.4 q 0,-0.391111 -0.19556,-0.568889 -0.19556,-0.195556 -0.55111,-0.337778 l -2.56,-1.031111 v -1.368889 h 9.61778 v 1.368889 l -2.56,1.031111 q -0.30223,0.124444 -0.53334,0.337778 -0.21333,0.195555 -0.21333,0.568889 v 17.848889 l -0.55111,4.16 h -3.50222 z"
           style="font-style:normal;font-variant:normal;font-weight:bold;font-stretch:normal;font-family:'Sitka Subheading';-inkscape-font-specification:'Sitka Subheading Bold'"
           id="path2060" />
        <path
           d="m 182.85262,46.314705 2.56,-0.906667 q 0.32,-0.106666 0.51555,-0.337778 0.21334,-0.231111 0.21334,-0.622222 V 25.745816 q 0,-0.391111 -0.21334,-0.604444 -0.21333,-0.231112 -0.51555,-0.32 l -2.56,-0.906667 v -1.368889 h 21.28 v 6.88 h -1.99111 l -1.15556,-3.608889 q -0.10666,-0.302222 -0.28444,-0.462222 -0.16,-0.177778 -0.46222,-0.177778 h -8.49778 v 8.16 h 4.92444 q 0.35556,0 0.49778,-0.16 0.16,-0.16 0.26667,-0.462222 l 1.03111,-2.844445 h 1.68889 v 9.475556 h -1.68889 l -1.03111,-2.808889 q -0.10667,-0.284444 -0.26667,-0.462222 -0.14222,-0.195556 -0.49778,-0.195556 h -4.92444 v 9.173334 h 9.92 q 0.28444,0 0.46222,-0.177778 0.19556,-0.195556 0.28444,-0.48 l 1.13778,-4.053333 h 1.97334 v 7.342222 h -22.66667 z"
           style="font-style:normal;font-variant:normal;font-weight:bold;font-stretch:normal;font-family:'Sitka Subheading';-inkscape-font-specification:'Sitka Subheading Bold'"
           id="path2062" />
      </g>
    </g>
  </g>
</svg>
