<?xml version="1.0" encoding="UTF-8" standalone="no"?>
<svg
   xmlns:osb="http://www.openswatchbook.org/uri/2009/osb"
   xmlns:dc="http://purl.org/dc/elements/1.1/"
   xmlns:cc="http://creativecommons.org/ns#"
   xmlns:rdf="http://www.w3.org/1999/02/22-rdf-syntax-ns#"
   xmlns:svg="http://www.w3.org/2000/svg"
   xmlns="http://www.w3.org/2000/svg"
   xmlns:sodipodi="http://sodipodi.sourceforge.net/DTD/sodipodi-0.dtd"
   xmlns:inkscape="http://www.inkscape.org/namespaces/inkscape"
   width="1481.233"
   height="833.73303"
   viewBox="0 0 1481.233 833.73302"
   version="1.1"
   id="SVGRoot"
   inkscape:version="1.0.2 (e86c870879, 2021-01-15, custom)"
   sodipodi:docname="map.svg"
   inkscape:export-filename="C:\Users\Christa\Cassi\HTML-CSS-JS\special-event-landing-page\assets\map.png"
   inkscape:export-xdpi="102.98851"
   inkscape:export-ydpi="102.98851">
  <defs
     id="defs2">
    <rect
       x="95.714287"
       y="538.57141"
       width="245.71429"
       height="34.285713"
       id="rect1038" />
    <rect
       x="150"
       y="675.71429"
       width="77.14286"
       height="74.285713"
       id="rect1024" />
    <rect
       x="495.71429"
       y="392.85715"
       width="528.57141"
       height="151.42857"
       id="rect1012" />
    <linearGradient
       id="linearGradient1518"
       osb:paint="gradient">
      <stop
         style="stop-color:#ff2a2a;stop-opacity:1;"
         offset="0"
         id="stop1514" />
      <stop
         style="stop-color:#ff2a2a;stop-opacity:0;"
         offset="1"
         id="stop1516" />
    </linearGradient>
    <rect
       x="95.714287"
       y="538.57141"
       width="245.71429"
       height="34.285713"
       id="rect1038-4" />
    <rect
       x="95.714287"
       y="538.57141"
       width="245.71429"
       height="34.285713"
       id="rect1051" />
    <rect
       x="95.714287"
       y="538.57141"
       width="245.71429"
       height="34.285713"
       id="rect1038-4-4" />
    <rect
       x="95.714287"
       y="538.57141"
       width="245.71429"
       height="34.285713"
       id="rect1107" />
    <rect
       x="95.714287"
       y="538.57141"
       width="245.71429"
       height="34.285713"
       id="rect1038-7" />
    <rect
       x="95.714287"
       y="538.57141"
       width="245.71429"
       height="34.285713"
       id="rect1143" />
  </defs>
  <sodipodi:namedview
     id="base"
     pagecolor="#ffffff"
     bordercolor="#666666"
     borderopacity="1.0"
     inkscape:pageopacity="0.0"
     inkscape:pageshadow="2"
     inkscape:zoom="0.35"
     inkscape:cx="828.96364"
     inkscape:cy="321.28039"
     inkscape:document-units="px"
     inkscape:current-layer="layer1"
     inkscape:document-rotation="0"
     showgrid="false"
     units="px"
     inkscape:window-width="1197"
     inkscape:window-height="728"
     inkscape:window-x="4"
     inkscape:window-y="0"
     inkscape:window-maximized="0"
     showguides="true"
     inkscape:snap-global="false">
    <inkscape:grid
       type="xygrid"
       id="grid835"
       originx="0.61651647"
       originy="0.61651647" />
  </sodipodi:namedview>
  <metadata
     id="metadata5">
    <rdf:RDF>
      <cc:Work
         rdf:about="">
        <dc:format>image/svg+xml</dc:format>
        <dc:type
           rdf:resource="http://purl.org/dc/dcmitype/StillImage" />
        <dc:title></dc:title>
      </cc:Work>
    </rdf:RDF>
  </metadata>
  <g
     inkscape:label="Layer 1"
     inkscape:groupmode="layer"
     id="layer1"
     style="display:inline"
     transform="translate(2.0450865,2.0450865)">
    <g
       id="g1384">
      <path
         id="rect833"
         style="fill:#e6fbfc;fill-opacity:1;fill-rule:evenodd;stroke:#000000;stroke-width:1.23303;stroke-linecap:round;stroke-linejoin:round;stroke-miterlimit:10;stroke-opacity:1;paint-order:stroke fill markers"
         d="M -1.4285715,-1.4285715 H 1478.5714 V 831.07143 H -1.4285715 Z" />
      <path
         id="rect837-0-0"
         style="display:inline;fill:#ffffff;fill-opacity:1;fill-rule:evenodd;stroke:#000000;stroke-width:0.945184;stroke-linecap:round;stroke-linejoin:round;stroke-miterlimit:10;stroke-opacity:1;paint-order:stroke fill markers"
         d="M 417.1437,-0.81082513 V 209.32087 H -1.0700335 v 21.41407 H 417.1437 V 590.7447 l -418.2793027,0.17857 0.17857144,21.24721 H 417.1437 v 218.57227 h 21.42773 V 612.17048 h 640.00777 l 0.713,218.54591 20.6991,0.0446 V 612.17048 l 378.0424,-1.42857 -0.1786,-20.17578 -377.8638,0.17857 V 230.73494 l 378.1613,-0.0893 v -21.41407 l -378.1613,0.0893 V -0.83844787 l -21.5014,-0.0892857 0.089,210.24860357 H 438.57143 V -0.81082513 Z M 438.57143,230.73494 H 1078.5792 V 590.7447 H 438.57143 Z"
         sodipodi:nodetypes="cccccccccccccccccccccccccccccccccc" />
      <path
         id="rect962"
         style="fill:#ffffff;fill-opacity:1;fill-rule:evenodd;stroke:#000000;stroke-width:1.333;stroke-linecap:round;stroke-linejoin:round;stroke-miterlimit:10;stroke-opacity:1;paint-order:stroke fill markers"
         d="m 470.57144,272.57144 h 214.28572 v 82.85714 H 470.57144 Z" />
      <path
         id="rect964"
         style="fill:#ffffff;fill-opacity:1;fill-rule:evenodd;stroke:#000000;stroke-width:1.333;stroke-linecap:round;stroke-linejoin:round;stroke-miterlimit:10;stroke-opacity:1;paint-order:stroke fill markers"
         d="M 942.85712,94.285713 H 1048.5714 V 194.28571 H 942.85712 Z" />
      <path
         id="rect966"
         style="fill:#ffffff;fill-opacity:1;fill-rule:evenodd;stroke:#000000;stroke-width:1.333;stroke-linecap:round;stroke-linejoin:round;stroke-miterlimit:10;stroke-opacity:1;paint-order:stroke fill markers"
         d="m 1119.1428,272.57144 h 140 v 77.14286 h -140 z" />
      <path
         id="rect966-5"
         style="display:inline;fill:#ffffff;fill-opacity:1;fill-rule:evenodd;stroke:#000000;stroke-width:1.333;stroke-linecap:round;stroke-linejoin:round;stroke-miterlimit:10;stroke-opacity:1;paint-order:stroke fill markers"
         d="m 1119.7144,490.85715 h 140 v 77.14286 h -140 z" />
      <path
         id="rect966-5-8"
         style="display:inline;fill:#ffffff;fill-opacity:1;fill-rule:evenodd;stroke:#000000;stroke-width:1.333;stroke-linecap:round;stroke-linejoin:round;stroke-miterlimit:10;stroke-opacity:1;paint-order:stroke fill markers"
         d="m 1118.5714,382.85712 h 140 v 77.14286 h -140 z" />
      <path
         id="rect1008"
         style="fill:#ffffff;fill-opacity:1;fill-rule:evenodd;stroke:#000000;stroke-width:1.08114;stroke-linecap:round;stroke-linejoin:round;stroke-miterlimit:10;stroke-opacity:1;paint-order:stroke fill markers"
         d="M 29.874084,647.01691 H 390.12595 V 795.84019 H 29.874084 Z" />
      <g
         aria-label="Flower Farmer
Market Days"
         transform="translate(0,-16.162441)"
         id="text1010"
         style="font-weight:bold;font-size:40px;line-height:1.25;font-family:sans-serif;-inkscape-font-specification:'sans-serif Bold';text-align:center;text-anchor:middle;white-space:pre;shape-inside:url(#rect1012)">
        <path
           d="m 569.54724,411.47573 v 9.86666 h 17.27999 v 6.93333 h -17.27999 v 13.59999 h -8.64 V 404.5424 h 28.21332 v 6.93333 z"
           style="font-style:normal;font-variant:normal;font-weight:bold;font-stretch:normal;font-size:53.3333px;font-family:Montserrat;-inkscape-font-specification:'Montserrat Bold';text-align:center;text-anchor:middle;fill:#1a1a1a"
           id="path1222" />
        <path
           d="m 594.40055,402.3024 h 8.32 v 39.57331 h -8.32 z"
           style="font-style:normal;font-variant:normal;font-weight:bold;font-stretch:normal;font-size:53.3333px;font-family:Montserrat;-inkscape-font-specification:'Montserrat Bold';text-align:center;text-anchor:middle;fill:#1a1a1a"
           id="path1224" />
        <path
           d="m 624.10713,442.30238 q -4.53333,0 -8.15999,-1.86667 -3.57334,-1.91999 -5.6,-5.27999 -2.02667,-3.36 -2.02667,-7.62666 0,-4.26667 2.02667,-7.62667 2.02666,-3.35999 5.6,-5.22666 3.62666,-1.92 8.15999,-1.92 4.53333,0 8.10666,1.92 3.57333,1.86667 5.6,5.22666 2.02667,3.36 2.02667,7.62667 0,4.26666 -2.02667,7.62666 -2.02667,3.36 -5.6,5.27999 -3.57333,1.86667 -8.10666,1.86667 z m 0,-6.82666 q 3.2,0 5.22666,-2.13333 2.08,-2.18667 2.08,-5.81333 0,-3.62667 -2.08,-5.76 -2.02666,-2.18667 -5.22666,-2.18667 -3.2,0 -5.28,2.18667 -2.07999,2.13333 -2.07999,5.76 0,3.62666 2.07999,5.81333 2.08,2.13333 5.28,2.13333 z"
           style="font-style:normal;font-variant:normal;font-weight:bold;font-stretch:normal;font-size:53.3333px;font-family:Montserrat;-inkscape-font-specification:'Montserrat Bold';text-align:center;text-anchor:middle;fill:#1a1a1a"
           id="path1226" />
        <path
           d="m 690.66695,413.1824 -10.39999,28.69331 h -8 l -6.45333,-17.81332 -6.66666,17.81332 h -7.99999 L 640.80032,413.1824 h 7.83999 l 6.77333,19.41332 7.04,-19.41332 h 7.03999 l 6.82667,19.41332 6.98666,-19.41332 z"
           style="font-style:normal;font-variant:normal;font-weight:bold;font-stretch:normal;font-size:53.3333px;font-family:Montserrat;-inkscape-font-specification:'Montserrat Bold';text-align:center;text-anchor:middle;fill:#1a1a1a"
           id="path1228" />
        <path
           d="m 721.86679,427.63572 q 0,0.16 -0.16,2.24 h -21.70666 q 0.58667,2.66667 2.77334,4.21333 2.18666,1.54667 5.43999,1.54667 2.24,0 3.94667,-0.64 1.76,-0.69334 3.25333,-2.13333 l 4.42666,4.79999 q -4.05333,4.64 -11.83999,4.64 -4.85333,0 -8.58666,-1.86667 -3.73333,-1.91999 -5.76,-5.27999 -2.02666,-3.36 -2.02666,-7.62666 0,-4.21334 1.97333,-7.57333 2.02666,-3.41333 5.49333,-5.28 3.52,-1.92 7.83999,-1.92 4.21333,0 7.62667,1.81333 3.41333,1.81334 5.33333,5.22667 1.97333,3.35999 1.97333,7.83999 z m -14.87999,-8.58666 q -2.82667,0 -4.74667,1.6 -1.92,1.6 -2.34666,4.37333 h 14.13332 q -0.42666,-2.72 -2.34666,-4.32 -1.92,-1.65333 -4.69333,-1.65333 z"
           style="font-style:normal;font-variant:normal;font-weight:bold;font-stretch:normal;font-size:53.3333px;font-family:Montserrat;-inkscape-font-specification:'Montserrat Bold';text-align:center;text-anchor:middle;fill:#1a1a1a"
           id="path1230" />
        <path
           d="m 735.36004,416.96906 q 1.49334,-2.08 4,-3.14666 2.56,-1.06667 5.86666,-1.06667 v 7.68 q -1.38666,-0.10667 -1.86666,-0.10667 -3.57333,0 -5.6,2.02667 -2.02666,1.97333 -2.02666,5.97333 v 13.54665 h -8.32 V 413.1824 h 7.94666 z"
           style="font-style:normal;font-variant:normal;font-weight:bold;font-stretch:normal;font-size:53.3333px;font-family:Montserrat;-inkscape-font-specification:'Montserrat Bold';text-align:center;text-anchor:middle;fill:#1a1a1a"
           id="path1232" />
        <path
           d="m 774.71995,411.47573 v 9.86666 h 17.27999 v 6.93333 h -17.27999 v 13.59999 h -8.63999 V 404.5424 h 28.21331 v 6.93333 z"
           style="font-style:normal;font-variant:normal;font-weight:bold;font-stretch:normal;font-size:53.3333px;font-family:Montserrat;-inkscape-font-specification:'Montserrat Bold';text-align:center;text-anchor:middle;fill:#1a1a1a"
           id="path1234" />
        <path
           d="m 810.34653,412.75573 q 6.66666,0 10.23999,3.2 3.57333,3.14666 3.57333,9.54666 v 16.37332 h -7.78666 v -3.57333 q -2.34667,4 -8.74666,4 -3.30667,0 -5.76,-1.12 -2.4,-1.12 -3.68,-3.09333 -1.28,-1.97333 -1.28,-4.48 0,-4 2.98667,-6.29333 3.04,-2.29333 9.33333,-2.29333 h 6.61333 q 0,-2.72 -1.65334,-4.16 -1.65333,-1.49333 -4.95999,-1.49333 -2.29334,0 -4.53333,0.74667 -2.18667,0.69333 -3.73334,1.92 l -2.98666,-5.81333 q 2.34666,-1.65334 5.6,-2.56 3.30666,-0.90667 6.77333,-0.90667 z m -0.64,23.94665 q 2.13333,0 3.78666,-0.96 1.65333,-1.01333 2.34667,-2.93333 v -2.93333 h -5.70667 q -5.11999,0 -5.11999,3.36 0,1.6 1.22666,2.56 1.28,0.90666 3.46667,0.90666 z"
           style="font-style:normal;font-variant:normal;font-weight:bold;font-stretch:normal;font-size:53.3333px;font-family:Montserrat;-inkscape-font-specification:'Montserrat Bold';text-align:center;text-anchor:middle;fill:#1a1a1a"
           id="path1236" />
        <path
           d="m 839.62643,416.96906 q 1.49333,-2.08 4,-3.14666 2.56,-1.06667 5.86666,-1.06667 v 7.68 q -1.38666,-0.10667 -1.86666,-0.10667 -3.57333,0 -5.6,2.02667 -2.02667,1.97333 -2.02667,5.97333 v 13.54665 h -8.31999 V 413.1824 h 7.94666 z"
           style="font-style:normal;font-variant:normal;font-weight:bold;font-stretch:normal;font-size:53.3333px;font-family:Montserrat;-inkscape-font-specification:'Montserrat Bold';text-align:center;text-anchor:middle;fill:#1a1a1a"
           id="path1238" />
        <path
           d="m 891.19964,412.75573 q 5.38666,0 8.53333,3.2 3.19999,3.14666 3.19999,9.49333 v 16.42665 h -8.31999 v -15.14665 q 0,-3.41334 -1.44,-5.06667 -1.38667,-1.70666 -4,-1.70666 -2.93333,0 -4.63999,1.92 -1.70667,1.86666 -1.70667,5.59999 v 14.39999 h -8.32 v -15.14665 q 0,-6.77333 -5.43999,-6.77333 -2.88,0 -4.58667,1.92 -1.70666,1.86666 -1.70666,5.59999 v 14.39999 h -8.32 V 413.1824 h 7.94667 v 3.30666 q 1.59999,-1.81333 3.89333,-2.77333 2.34666,-0.96 5.11999,-0.96 3.04,0 5.49333,1.22667 2.45334,1.17333 3.94667,3.46666 1.76,-2.24 4.42666,-3.46666 2.72,-1.22667 5.92,-1.22667 z"
           style="font-style:normal;font-variant:normal;font-weight:bold;font-stretch:normal;font-size:53.3333px;font-family:Montserrat;-inkscape-font-specification:'Montserrat Bold';text-align:center;text-anchor:middle;fill:#1a1a1a"
           id="path1240" />
        <path
           d="m 938.82618,427.63572 q 0,0.16 -0.16,2.24 h -21.70665 q 0.58667,2.66667 2.77333,4.21333 2.18667,1.54667 5.44,1.54667 2.24,0 3.94666,-0.64 1.76,-0.69334 3.25333,-2.13333 l 4.42667,4.79999 q -4.05333,4.64 -11.83999,4.64 -4.85334,0 -8.58667,-1.86667 -3.73333,-1.91999 -5.75999,-5.27999 -2.02667,-3.36 -2.02667,-7.62666 0,-4.21334 1.97333,-7.57333 2.02667,-3.41333 5.49333,-5.28 3.52,-1.92 7.84,-1.92 4.21333,0 7.62666,1.81333 3.41333,1.81334 5.33333,5.22667 1.97333,3.35999 1.97333,7.83999 z m -14.87999,-8.58666 q -2.82666,0 -4.74666,1.6 -1.92,1.6 -2.34667,4.37333 h 14.13333 q -0.42667,-2.72 -2.34667,-4.32 -1.92,-1.65333 -4.69333,-1.65333 z"
           style="font-style:normal;font-variant:normal;font-weight:bold;font-stretch:normal;font-size:53.3333px;font-family:Montserrat;-inkscape-font-specification:'Montserrat Bold';text-align:center;text-anchor:middle;fill:#1a1a1a"
           id="path1242" />
        <path
           d="m 952.31946,416.96906 q 1.49333,-2.08 3.99999,-3.14666 2.56,-1.06667 5.86667,-1.06667 v 7.68 q -1.38667,-0.10667 -1.86667,-0.10667 -3.57333,0 -5.6,2.02667 -2.02666,1.97333 -2.02666,5.97333 v 13.54665 h -8.32 V 413.1824 h 7.94667 z"
           style="font-style:normal;font-variant:normal;font-weight:bold;font-stretch:normal;font-size:53.3333px;font-family:Montserrat;-inkscape-font-specification:'Montserrat Bold';text-align:center;text-anchor:middle;fill:#1a1a1a"
           id="path1244" />
        <path
           d="m 624.02712,508.54234 -0.0533,-22.39999 -10.98666,18.45333 h -3.89333 L 598.1605,486.62235 v 21.91999 h -8.10666 v -37.33331 h 7.14666 l 13.97333,23.19998 13.75999,-23.19998 h 7.09333 l 0.10667,37.33331 z"
           style="font-style:normal;font-variant:normal;font-weight:bold;font-stretch:normal;font-size:53.3333px;font-family:Montserrat;-inkscape-font-specification:'Montserrat Bold';text-align:center;text-anchor:middle;fill:#1a1a1a"
           id="path1246" />
        <path
           d="m 651.97376,479.42236 q 6.66667,0 10.24,3.2 3.57333,3.14666 3.57333,9.54666 v 16.37332 h -7.78666 v -3.57333 q -2.34667,4 -8.74667,4 -3.30666,0 -5.75999,-1.12 -2.4,-1.12 -3.68,-3.09333 -1.28,-1.97334 -1.28,-4.48 0,-4 2.98667,-6.29333 3.03999,-2.29333 9.33332,-2.29333 h 6.61333 q 0,-2.72 -1.65333,-4.16 -1.65333,-1.49333 -4.96,-1.49333 -2.29333,0 -4.53333,0.74666 -2.18666,0.69334 -3.73333,1.92 l -2.98666,-5.81333 q 2.34666,-1.65333 5.59999,-2.56 3.30667,-0.90666 6.77333,-0.90666 z m -0.64,23.94665 q 2.13334,0 3.78667,-0.96 1.65333,-1.01333 2.34666,-2.93333 v -2.93333 h -5.70666 q -5.12,0 -5.12,3.35999 0,1.6 1.22667,2.56 1.28,0.90667 3.46666,0.90667 z"
           style="font-style:normal;font-variant:normal;font-weight:bold;font-stretch:normal;font-size:53.3333px;font-family:Montserrat;-inkscape-font-specification:'Montserrat Bold';text-align:center;text-anchor:middle;fill:#1a1a1a"
           id="path1248" />
        <path
           d="m 681.25367,483.63569 q 1.49333,-2.08 4,-3.14667 2.56,-1.06666 5.86666,-1.06666 v 7.67999 q -1.38666,-0.10666 -1.86666,-0.10666 -3.57333,0 -5.6,2.02666 -2.02666,1.97333 -2.02666,5.97333 v 13.54666 h -8.32 v -28.69332 h 7.94666 z"
           style="font-style:normal;font-variant:normal;font-weight:bold;font-stretch:normal;font-size:53.3333px;font-family:Montserrat;-inkscape-font-specification:'Montserrat Bold';text-align:center;text-anchor:middle;fill:#1a1a1a"
           id="path1250" />
        <path
           d="m 708.40023,497.28901 -4,3.94667 v 7.30666 h -8.32 v -39.57331 h 8.32 v 22.39999 l 12.15999,-11.52 h 9.92 l -11.94666,12.16 13.01332,16.53332 h -10.07999 z"
           style="font-style:normal;font-variant:normal;font-weight:bold;font-stretch:normal;font-size:53.3333px;font-family:Montserrat;-inkscape-font-specification:'Montserrat Bold';text-align:center;text-anchor:middle;fill:#1a1a1a"
           id="path1252" />
        <path
           d="m 758.16015,494.30235 q 0,0.16 -0.16,2.24 H 736.2935 q 0.58666,2.66666 2.77333,4.21333 2.18666,1.54666 5.44,1.54666 2.23999,0 3.94666,-0.64 1.76,-0.69333 3.25333,-2.13333 l 4.42667,4.8 q -4.05334,4.64 -11.84,4.64 -4.85333,0 -8.58666,-1.86667 -3.73333,-1.92 -5.76,-5.28 -2.02666,-3.35999 -2.02666,-7.62666 0,-4.21333 1.97333,-7.57333 2.02667,-3.41333 5.49333,-5.27999 3.52,-1.92 7.84,-1.92 4.21333,0 7.62666,1.81333 3.41333,1.81333 5.33333,5.22666 1.97333,3.36 1.97333,7.84 z m -14.87999,-8.58666 q -2.82667,0 -4.74666,1.6 -1.92,1.59999 -2.34667,4.37333 h 14.13333 q -0.42667,-2.72 -2.34667,-4.32 -1.92,-1.65333 -4.69333,-1.65333 z"
           style="font-style:normal;font-variant:normal;font-weight:bold;font-stretch:normal;font-size:53.3333px;font-family:Montserrat;-inkscape-font-specification:'Montserrat Bold';text-align:center;text-anchor:middle;fill:#1a1a1a"
           id="path1254" />
        <path
           d="m 782.2134,507.15567 q -1.22667,0.90667 -3.04,1.38667 -1.76,0.42667 -3.73333,0.42667 -5.12,0 -7.94666,-2.61334 -2.77333,-2.61333 -2.77333,-7.67999 v -11.78666 h -4.42667 v -6.4 h 4.42667 v -6.98666 h 8.31999 v 6.98666 h 7.14667 v 6.4 h -7.14667 v 11.67999 q 0,1.81333 0.90667,2.82667 0.96,0.96 2.66666,0.96 1.97334,0 3.36,-1.06667 z"
           style="font-style:normal;font-variant:normal;font-weight:bold;font-stretch:normal;font-size:53.3333px;font-family:Montserrat;-inkscape-font-specification:'Montserrat Bold';text-align:center;text-anchor:middle;fill:#1a1a1a"
           id="path1256" />
        <path
           d="m 802.58664,471.20903 h 16.95999 q 6.08,0 10.71999,2.34666 4.69333,2.29334 7.25333,6.50667 2.61333,4.21333 2.61333,9.81332 0,5.6 -2.61333,9.81333 -2.56,4.21333 -7.25333,6.56 -4.63999,2.29333 -10.71999,2.29333 h -16.95999 z m 16.53332,30.23998 q 5.6,0 8.90666,-3.09333 3.36,-3.14667 3.36,-8.48 0,-5.33333 -3.36,-8.42666 -3.30666,-3.14666 -8.90666,-3.14666 h -7.89333 v 23.14665 z"
           style="font-style:normal;font-variant:normal;font-weight:bold;font-stretch:normal;font-size:53.3333px;font-family:Montserrat;-inkscape-font-specification:'Montserrat Bold';text-align:center;text-anchor:middle;fill:#1a1a1a"
           id="path1258" />
        <path
           d="m 857.62652,479.42236 q 6.66666,0 10.24,3.2 3.57333,3.14666 3.57333,9.54666 v 16.37332 h -7.78666 v -3.57333 q -2.34667,4 -8.74667,4 -3.30666,0 -5.75999,-1.12 -2.4,-1.12 -3.68,-3.09333 -1.28,-1.97334 -1.28,-4.48 0,-4 2.98667,-6.29333 3.03999,-2.29333 9.33332,-2.29333 h 6.61333 q 0,-2.72 -1.65333,-4.16 -1.65333,-1.49333 -4.96,-1.49333 -2.29333,0 -4.53333,0.74666 -2.18666,0.69334 -3.73333,1.92 l -2.98666,-5.81333 q 2.34666,-1.65333 5.59999,-2.56 3.30667,-0.90666 6.77333,-0.90666 z m -0.64,23.94665 q 2.13333,0 3.78667,-0.96 1.65333,-1.01333 2.34666,-2.93333 v -2.93333 h -5.70666 q -5.12,0 -5.12,3.35999 0,1.6 1.22667,2.56 1.28,0.90667 3.46666,0.90667 z"
           style="font-style:normal;font-variant:normal;font-weight:bold;font-stretch:normal;font-size:53.3333px;font-family:Montserrat;-inkscape-font-specification:'Montserrat Bold';text-align:center;text-anchor:middle;fill:#1a1a1a"
           id="path1260" />
        <path
           d="m 906.90641,479.84902 -12.95999,30.45332 q -1.97334,4.96 -4.90667,6.98666 -2.88,2.02667 -6.98666,2.02667 -2.24,0 -4.42666,-0.69334 -2.18667,-0.69333 -3.57334,-1.92 l 3.04,-5.91999 q 0.96,0.85333 2.18667,1.33333 1.28,0.48 2.50666,0.48 1.70667,0 2.77334,-0.85333 1.06666,-0.8 1.91999,-2.72 l 0.10667,-0.26667 -12.42666,-28.90665 h 8.58666 l 8.05333,19.46666 8.10666,-19.46666 z"
           style="font-style:normal;font-variant:normal;font-weight:bold;font-stretch:normal;font-size:53.3333px;font-family:Montserrat;-inkscape-font-specification:'Montserrat Bold';text-align:center;text-anchor:middle;fill:#1a1a1a"
           id="path1262" />
        <path
           d="m 919.54631,508.96901 q -3.57334,0 -6.98667,-0.85334 -3.41333,-0.90666 -5.43999,-2.24 l 2.77333,-5.97333 q 1.92,1.22667 4.64,2.02667 2.71999,0.74667 5.33333,0.74667 5.27999,0 5.27999,-2.61334 0,-1.22666 -1.44,-1.75999 -1.44,-0.53334 -4.42666,-0.90667 -3.52,-0.53333 -5.81333,-1.22667 -2.29333,-0.69333 -4,-2.45333 -1.65333,-1.76 -1.65333,-5.01333 0,-2.72 1.54667,-4.8 1.59999,-2.13333 4.58666,-3.30666 3.04,-1.17333 7.14666,-1.17333 3.04,0 6.02666,0.69333 3.04,0.64 5.01334,1.81333 l -2.77334,5.92 q -3.78666,-2.13333 -8.26666,-2.13333 -2.66666,0 -4,0.74666 -1.33333,0.74667 -1.33333,1.92 0,1.33333 1.44,1.86667 1.44,0.53333 4.58666,1.01333 3.52,0.58667 5.76,1.28 2.24,0.64 3.89333,2.4 1.65333,1.76 1.65333,4.90666 0,2.66667 -1.59999,4.74667 -1.6,2.07999 -4.69333,3.25333 -3.04,1.12 -7.25333,1.12 z"
           style="font-style:normal;font-variant:normal;font-weight:bold;font-stretch:normal;font-size:53.3333px;font-family:Montserrat;-inkscape-font-specification:'Montserrat Bold';text-align:center;text-anchor:middle;fill:#1a1a1a"
           id="path1264" />
      </g>
      <path
         id="path1020"
         style="fill:#ffdb3c;fill-opacity:1;fill-rule:evenodd;stroke:#000000;stroke-width:8;stroke-linecap:round;stroke-linejoin:round;stroke-miterlimit:10;stroke-dasharray:none;stroke-opacity:1;paint-order:stroke fill markers"
         transform="rotate(94.663356,676.70474,560.29992)"
         d="m 687.1126,487.98292 c -0.25524,0.44209 -24.9054,-2.99382 -25.37175,-2.78618 -0.46635,0.20763 -14.40715,20.82534 -14.90648,20.7192 -0.49933,-0.10614 -4.84891,-24.61158 -5.19049,-24.99094 -0.34158,-0.37937 -24.25812,-7.26663 -24.31148,-7.77432 -0.0534,-0.50769 21.9086,-12.21698 22.16385,-12.65908 0.25524,-0.44209 -0.5852,-25.31636 -0.11885,-25.52399 0.46635,-0.20764 18.38917,17.06107 18.8885,17.16721 0.49933,0.10613 23.89646,-8.37975 24.23804,-8.00038 0.34158,0.37936 -10.54348,22.7613 -10.49012,23.26899 0.0534,0.50769 15.35402,20.13739 15.09878,20.57949 z" />
      <path
         id="path1030"
         style="fill:#0f5257;fill-opacity:1;fill-rule:evenodd;stroke:#222222;stroke-width:7.19463;stroke-linecap:round;stroke-linejoin:round;stroke-miterlimit:10;stroke-dasharray:none;stroke-opacity:1;paint-order:stroke fill markers"
         d="m 236.83125,722.14282 a 34.6884,34.6884 0 0 1 -34.6884,34.6884 34.6884,34.6884 0 0 1 -34.6884,-34.6884 34.6884,34.6884 0 0 1 34.6884,-34.6884 34.6884,34.6884 0 0 1 34.6884,34.6884 z" />
      <g
         aria-label="P"
         transform="translate(14.678004,16.314729)"
         id="text1022"
         style="font-weight:bold;font-size:53.3333px;line-height:1.25;font-family:sans-serif;-inkscape-font-specification:'sans-serif Bold';text-align:center;text-anchor:middle;white-space:pre;shape-inside:url(#rect1024)">
        <path
           d="m 189.638,687.39982 q 4.95999,0 8.58666,1.65334 3.68,1.65333 5.65333,4.69333 1.97333,3.04 1.97333,7.19999 0,4.10667 -1.97333,7.2 -1.97333,3.04 -5.65333,4.69333 -3.62667,1.6 -8.58666,1.6 h -7.52 v 10.29333 h -8.63999 v -37.33332 z m -0.48,19.99999 q 3.89333,0 5.91999,-1.65333 2.02667,-1.70667 2.02667,-4.8 0,-3.14666 -2.02667,-4.79999 -2.02666,-1.70667 -5.91999,-1.70667 h -7.04 v 12.95999 z"
           style="font-style:normal;font-variant:normal;font-weight:bold;font-stretch:normal;font-size:53.3333px;font-family:Montserrat;-inkscape-font-specification:'Montserrat Bold';text-align:center;text-anchor:middle;fill:#ffffff;fill-opacity:1"
           id="path1269" />
      </g>
      <g
         aria-label="Main St"
         transform="translate(0,18)"
         id="text1036"
         style="font-style:normal;font-variant:normal;font-weight:normal;font-stretch:normal;font-size:26.6667px;line-height:1.25;font-family:sans-serif;-inkscape-font-specification:sans-serif;text-align:center;text-anchor:middle;white-space:pre;shape-inside:url(#rect1038)">
        <path
           d="m 171.4293,542.72592 h 3.91928 l 4.96094,13.22918 4.98699,-13.22918 h 3.91927 v 19.44013 h -2.5651 v -17.07034 l -5.01303,13.33335 h -2.64323 l -5.01303,-13.33335 v 17.07034 h -2.55209 z"
           style="font-style:normal;font-variant:normal;font-weight:normal;font-stretch:normal;font-size:26.6667px;line-height:1.25;font-family:sans-serif;-inkscape-font-specification:sans-serif;text-align:center;text-anchor:middle;white-space:pre;shape-inside:url(#rect1038)"
           id="path1272" />
        <path
           d="m 200.96059,554.83531 q -2.90365,0 -4.02344,0.66406 -1.1198,0.66406 -1.1198,2.26563 0,1.27604 0.83334,2.03125 0.84635,0.74219 2.29167,0.74219 1.99219,0 3.19011,-1.40625 1.21093,-1.41928 1.21093,-3.76303 v -0.53385 z m 4.77865,-0.98959 v 8.32033 h -2.39584 v -2.21355 q -0.82031,1.32813 -2.04427,1.96615 -1.22396,0.625 -2.99479,0.625 -2.23959,0 -3.56772,-1.25 -1.3151,-1.26302 -1.3151,-3.3724 0,-2.46094 1.64062,-3.71094 1.65365,-1.25001 4.92189,-1.25001 h 3.35937 v -0.23437 q 0,-1.65365 -1.09375,-2.55209 -1.08073,-0.91146 -3.04688,-0.91146 -1.25,0 -2.43489,0.29948 -1.1849,0.29948 -2.27865,0.89844 v -2.21354 q 1.3151,-0.50782 2.55208,-0.75521 1.23698,-0.26042 2.40886,-0.26042 3.16407,0 4.72657,1.64063 1.5625,1.64062 1.5625,4.97396 z"
           style="font-style:normal;font-variant:normal;font-weight:normal;font-stretch:normal;font-size:26.6667px;line-height:1.25;font-family:sans-serif;-inkscape-font-specification:sans-serif;text-align:center;text-anchor:middle;white-space:pre;shape-inside:url(#rect1038)"
           id="path1274" />
        <path
           d="m 210.67414,547.58269 h 2.39584 v 14.58336 h -2.39584 z m 0,-5.67709 h 2.39584 v 3.03386 h -2.39584 z"
           style="font-style:normal;font-variant:normal;font-weight:normal;font-stretch:normal;font-size:26.6667px;line-height:1.25;font-family:sans-serif;-inkscape-font-specification:sans-serif;text-align:center;text-anchor:middle;white-space:pre;shape-inside:url(#rect1038)"
           id="path1276" />
        <path
           d="m 230.20542,553.36395 v 8.8021 h -2.39584 v -8.72397 q 0,-2.07032 -0.80729,-3.09897 -0.8073,-1.02864 -2.42188,-1.02864 -1.94011,0 -3.0599,1.23698 -1.11979,1.23698 -1.11979,3.3724 v 8.2422 h -2.40886 v -14.58336 h 2.40886 v 2.26563 q 0.85937,-1.3151 2.01823,-1.96615 1.17187,-0.65104 2.69531,-0.65104 2.51303,0 3.80209,1.5625 1.28907,1.54948 1.28907,4.57032 z"
           style="font-style:normal;font-variant:normal;font-weight:normal;font-stretch:normal;font-size:26.6667px;line-height:1.25;font-family:sans-serif;-inkscape-font-specification:sans-serif;text-align:center;text-anchor:middle;white-space:pre;shape-inside:url(#rect1038)"
           id="path1278" />
        <path
           d="m 255.21847,543.36394 v 2.56511 q -1.4974,-0.71615 -2.82553,-1.06771 -1.32812,-0.35157 -2.5651,-0.35157 -2.14844,0 -3.32032,0.83334 -1.15886,0.83333 -1.15886,2.36979 0,1.28907 0.76823,1.95313 0.78126,0.65104 2.94272,1.05469 l 1.58854,0.32552 q 2.94271,0.5599 4.33594,1.97917 1.40626,1.40625 1.40626,3.77605 0,2.82552 -1.90105,4.28385 -1.88802,1.45834 -5.54688,1.45834 -1.38021,0 -2.94271,-0.3125 -1.54948,-0.3125 -3.21615,-0.92448 v -2.70834 q 1.60156,0.89844 3.13802,1.35417 1.53646,0.45573 3.02084,0.45573 2.25261,0 3.47657,-0.88542 1.22396,-0.88541 1.22396,-2.52604 0,-1.4323 -0.88542,-2.23959 -0.8724,-0.80729 -2.87761,-1.21094 l -1.60156,-0.3125 q -2.94272,-0.58594 -4.25782,-1.83594 -1.31511,-1.25 -1.31511,-3.47656 0,-2.57813 1.8099,-4.06251 1.82292,-1.48438 5.01303,-1.48438 1.36719,0 2.78646,0.2474 1.41927,0.2474 2.90365,0.74219 z"
           style="font-style:normal;font-variant:normal;font-weight:normal;font-stretch:normal;font-size:26.6667px;line-height:1.25;font-family:sans-serif;-inkscape-font-specification:sans-serif;text-align:center;text-anchor:middle;white-space:pre;shape-inside:url(#rect1038)"
           id="path1280" />
        <path
           d="m 262.75754,543.44206 v 4.14063 h 4.93491 v 1.86199 h -4.93491 v 7.91667 q 0,1.78386 0.48178,2.29167 0.49479,0.50781 1.99219,0.50781 h 2.46094 v 2.00522 h -2.46094 q -2.77344,0 -3.82813,-1.02865 -1.05469,-1.04167 -1.05469,-3.77605 v -7.91667 h -1.75782 v -1.86199 h 1.75782 v -4.14063 z"
           style="font-style:normal;font-variant:normal;font-weight:normal;font-stretch:normal;font-size:26.6667px;line-height:1.25;font-family:sans-serif;-inkscape-font-specification:sans-serif;text-align:center;text-anchor:middle;white-space:pre;shape-inside:url(#rect1038)"
           id="path1282" />
      </g>
      <g
         aria-label="5th Ave"
         transform="rotate(-90,239.27276,394.24031)"
         id="text1036-6"
         style="font-style:normal;font-variant:normal;font-weight:normal;font-stretch:normal;font-size:26.6667px;line-height:1.25;font-family:sans-serif;-inkscape-font-specification:sans-serif;text-align:center;white-space:pre;shape-inside:url(#rect1038-4);display:inline">
        <path
           d="m 170.6155,542.72592 h 10.32553 v 2.21354 h -7.91667 v 4.76563 q 0.57291,-0.19531 1.14583,-0.28646 0.57292,-0.10416 1.14584,-0.10416 3.25521,0 5.15625,1.78385 1.90105,1.78386 1.90105,4.83074 0,3.13802 -1.95313,4.88282 -1.95313,1.73177 -5.50782,1.73177 -1.22396,0 -2.5,-0.20833 -1.26303,-0.20834 -2.61719,-0.625 v -2.64324 q 1.17187,0.63802 2.42187,0.95053 1.25001,0.3125 2.64324,0.3125 2.2526,0 3.56771,-1.1849 1.3151,-1.1849 1.3151,-3.21615 0,-2.03125 -1.3151,-3.21615 -1.31511,-1.1849 -3.56771,-1.1849 -1.05469,0 -2.10938,0.23438 -1.04167,0.23437 -2.13542,0.72916 z"
           id="path1285" />
        <path
           d="m 189.58688,543.44206 v 4.14063 h 4.9349 v 1.86199 h -4.9349 v 7.91667 q 0,1.78386 0.48177,2.29167 0.49479,0.50781 1.99219,0.50781 h 2.46094 v 2.00522 h -2.46094 q -2.77344,0 -3.82813,-1.02865 -1.05469,-1.04167 -1.05469,-3.77605 v -7.91667 h -1.75781 v -1.86199 h 1.75781 v -4.14063 z"
           id="path1287" />
        <path
           d="m 209.79524,553.36395 v 8.8021 h -2.39584 v -8.72397 q 0,-2.07032 -0.80729,-3.09897 -0.8073,-1.02864 -2.42188,-1.02864 -1.94011,0 -3.0599,1.23698 -1.11979,1.23698 -1.11979,3.3724 v 8.2422 h -2.40886 V 541.9056 h 2.40886 v 7.94272 q 0.85937,-1.3151 2.01823,-1.96615 1.17187,-0.65104 2.69531,-0.65104 2.51303,0 3.80209,1.5625 1.28907,1.54948 1.28907,4.57032 z"
           id="path1289" />
        <path
           d="m 229.65203,545.31707 -3.56771,9.67449 h 7.14845 z m -1.48438,-2.59115 h 2.98178 l 7.40886,19.44013 h -2.73438 l -1.77083,-4.98699 h -8.76303 l -1.77084,4.98699 h -2.77344 z"
           id="path1291" />
        <path
           d="m 238.01142,547.58269 h 2.53906 l 4.5573,12.2396 4.5573,-12.2396 h 2.53907 l -5.46876,14.58336 h -3.25521 z"
           id="path1293" />
        <path
           d="m 267.98542,554.27541 v 1.17188 h -11.01564 q 0.15625,2.47396 1.48438,3.77604 1.34114,1.28907 3.72396,1.28907 1.38021,0 2.66927,-0.33854 1.30209,-0.33855 2.57813,-1.01563 v 2.26563 q -1.28906,0.54687 -2.64323,0.83333 -1.35417,0.28646 -2.7474,0.28646 -3.48959,0 -5.53386,-2.03125 -2.03125,-2.03126 -2.03125,-5.4948 0,-3.58073 1.92708,-5.67709 1.94011,-2.10938 5.22136,-2.10938 2.94271,0 4.64845,1.90104 1.71875,1.88803 1.71875,5.14324 z m -2.39584,-0.70313 q -0.026,-1.96614 -1.10677,-3.13802 -1.06771,-1.17188 -2.83855,-1.17188 -2.00521,0 -3.21615,1.13282 -1.19791,1.13281 -1.38021,3.19011 z"
           id="path1295" />
      </g>
      <g
         aria-label="6th Ave"
         transform="rotate(-90,572.88495,68.49282)"
         id="text1036-6-9"
         style="font-style:normal;font-variant:normal;font-weight:normal;font-stretch:normal;font-size:26.6667px;line-height:1.25;font-family:sans-serif;-inkscape-font-specification:sans-serif;text-align:center;white-space:pre;shape-inside:url(#rect1038-4-4);display:inline">
        <path
           d="m 176.53999,551.3978 q -1.77084,0 -2.81251,1.21094 -1.02864,1.21094 -1.02864,3.32032 0,2.09636 1.02864,3.32032 1.04167,1.21093 2.81251,1.21093 1.77083,0 2.79948,-1.21093 1.04167,-1.22396 1.04167,-3.32032 0,-2.10938 -1.04167,-3.32032 -1.02865,-1.21094 -2.79948,-1.21094 z m 5.22136,-8.2422 v 2.39584 q -0.98959,-0.46875 -2.00521,-0.71615 -1.00261,-0.24739 -1.99219,-0.24739 -2.60417,0 -3.98438,1.75781 -1.36719,1.75782 -1.56251,5.31251 0.76823,-1.13281 1.92709,-1.73177 1.15886,-0.61198 2.55209,-0.61198 2.92969,0 4.6224,1.78385 1.70573,1.77084 1.70573,4.83074 0,2.99479 -1.77084,4.80469 -1.77083,1.8099 -4.71354,1.8099 -3.3724,0 -5.15626,-2.57813 -1.78386,-2.59115 -1.78386,-7.50001 0,-4.60938 2.18751,-7.34376 2.1875,-2.7474 5.8724,-2.7474 0.98958,0 1.99219,0.19532 1.01563,0.19531 2.10938,0.58593 z"
           id="path1298" />
        <path
           d="m 189.58688,543.44206 v 4.14063 h 4.9349 v 1.86199 h -4.9349 v 7.91667 q 0,1.78386 0.48177,2.29167 0.49479,0.50781 1.99219,0.50781 h 2.46094 v 2.00522 h -2.46094 q -2.77344,0 -3.82813,-1.02865 -1.05469,-1.04167 -1.05469,-3.77605 v -7.91667 h -1.75781 v -1.86199 h 1.75781 v -4.14063 z"
           id="path1300" />
        <path
           d="m 209.79524,553.36395 v 8.8021 h -2.39584 v -8.72397 q 0,-2.07032 -0.80729,-3.09897 -0.8073,-1.02864 -2.42188,-1.02864 -1.94011,0 -3.0599,1.23698 -1.11979,1.23698 -1.11979,3.3724 v 8.2422 h -2.40886 V 541.9056 h 2.40886 v 7.94272 q 0.85937,-1.3151 2.01823,-1.96615 1.17187,-0.65104 2.69531,-0.65104 2.51303,0 3.80209,1.5625 1.28907,1.54948 1.28907,4.57032 z"
           id="path1302" />
        <path
           d="m 229.65203,545.31707 -3.56771,9.67449 h 7.14845 z m -1.48438,-2.59115 h 2.98178 l 7.40886,19.44013 h -2.73438 l -1.77083,-4.98699 h -8.76303 l -1.77084,4.98699 h -2.77344 z"
           id="path1304" />
        <path
           d="m 238.01142,547.58269 h 2.53906 l 4.5573,12.2396 4.5573,-12.2396 h 2.53907 l -5.46876,14.58336 h -3.25521 z"
           id="path1306" />
        <path
           d="m 267.98542,554.27541 v 1.17188 h -11.01564 q 0.15625,2.47396 1.48438,3.77604 1.34114,1.28907 3.72396,1.28907 1.38021,0 2.66927,-0.33854 1.30209,-0.33855 2.57813,-1.01563 v 2.26563 q -1.28906,0.54687 -2.64323,0.83333 -1.35417,0.28646 -2.7474,0.28646 -3.48959,0 -5.53386,-2.03125 -2.03125,-2.03126 -2.03125,-5.4948 0,-3.58073 1.92708,-5.67709 1.94011,-2.10938 5.22136,-2.10938 2.94271,0 4.64845,1.90104 1.71875,1.88803 1.71875,5.14324 z m -2.39584,-0.70313 q -0.026,-1.96614 -1.10677,-3.13802 -1.06771,-1.17188 -2.83855,-1.17188 -2.00521,0 -3.21615,1.13282 -1.19791,1.13281 -1.38021,3.19011 z"
           id="path1308" />
      </g>
      <g
         aria-label="Any St"
         transform="translate(0.77016592,-365.45144)"
         id="text1036-2"
         style="font-style:normal;font-variant:normal;font-weight:normal;font-stretch:normal;font-size:26.6667px;line-height:1.25;font-family:sans-serif;-inkscape-font-specification:sans-serif;text-align:center;white-space:pre;shape-inside:url(#rect1038-7);display:inline">
        <path
           d="m 184.2939,545.31707 -3.56771,9.67449 h 7.14845 z m -1.48437,-2.59115 h 2.98177 l 7.40886,19.44013 h -2.73438 l -1.77083,-4.98699 h -8.76303 l -1.77084,4.98699 h -2.77344 z"
           id="path1311" />
        <path
           d="m 208.05695,553.36395 v 8.8021 h -2.39583 v -8.72397 q 0,-2.07032 -0.8073,-3.09897 -0.80729,-1.02864 -2.42187,-1.02864 -1.94011,0 -3.0599,1.23698 -1.1198,1.23698 -1.1198,3.3724 v 8.2422 h -2.40885 v -14.58336 h 2.40885 v 2.26563 q 0.85938,-1.3151 2.01823,-1.96615 1.17188,-0.65104 2.69532,-0.65104 2.51302,0 3.80209,1.5625 1.28906,1.54948 1.28906,4.57032 z"
           id="path1313" />
        <path
           d="m 218.90332,563.52021 q -1.01563,2.60417 -1.97917,3.39845 -0.96354,0.79427 -2.57813,0.79427 h -1.91406 v -2.00521 h 1.40625 q 0.98958,0 1.53646,-0.46875 0.54687,-0.46875 1.21094,-2.21355 l 0.42969,-1.09375 -5.89845,-14.34898 h 2.53907 l 4.55729,11.40627 4.5573,-11.40627 h 2.53907 z"
           id="path1315" />
        <path
           d="m 248.85127,543.36394 v 2.56511 q -1.49739,-0.71615 -2.82552,-1.06771 -1.32813,-0.35157 -2.56511,-0.35157 -2.14844,0 -3.32031,0.83334 -1.15886,0.83333 -1.15886,2.36979 0,1.28907 0.76823,1.95313 0.78125,0.65104 2.94271,1.05469 l 1.58855,0.32552 q 2.94271,0.5599 4.33594,1.97917 1.40625,1.40625 1.40625,3.77605 0,2.82552 -1.90104,4.28385 -1.88803,1.45834 -5.54689,1.45834 -1.38021,0 -2.94271,-0.3125 -1.54948,-0.3125 -3.21615,-0.92448 v -2.70834 q 1.60157,0.89844 3.13803,1.35417 1.53646,0.45573 3.02083,0.45573 2.25261,0 3.47657,-0.88542 1.22396,-0.88541 1.22396,-2.52604 0,-1.4323 -0.88542,-2.23959 -0.87239,-0.80729 -2.8776,-1.21094 l -1.60157,-0.3125 q -2.94271,-0.58594 -4.25782,-1.83594 -1.3151,-1.25 -1.3151,-3.47656 0,-2.57813 1.8099,-4.06251 1.82291,-1.48438 5.01302,-1.48438 1.36719,0 2.78646,0.2474 1.41928,0.2474 2.90365,0.74219 z"
           id="path1317" />
        <path
           d="m 256.39035,543.44206 v 4.14063 h 4.9349 v 1.86199 h -4.9349 v 7.91667 q 0,1.78386 0.48177,2.29167 0.49479,0.50781 1.99219,0.50781 h 2.46094 v 2.00522 h -2.46094 q -2.77344,0 -3.82813,-1.02865 -1.05469,-1.04167 -1.05469,-3.77605 v -7.91667 h -1.75781 v -1.86199 h 1.75781 v -4.14063 z"
           id="path1319" />
      </g>
    </g>
  </g>
</svg>
